<svg xmlns="http://www.w3.org/2000/svg" width="48" height="41.012" viewBox="0 0 48 41.012">
  <g id="graduation-hat" transform="translate(0 -37.27)">
    <g id="Group_7" data-name="Group 7" transform="translate(0 37.27)">
      <g id="Group_6" data-name="Group 6">
        <path id="Path_6" data-name="Path 6" d="M48,66.587a4.212,4.212,0,0,0-2.812-3.96V48.059L48,46.9,24,37.27,0,46.9l24,9.63,18.375-7.341V62.627a4.194,4.194,0,0,0-.4,7.755l-2.337,7.01,2.667.89,1.479-4.437,1.479,4.437,2.667-.89-2.337-7.01A4.212,4.212,0,0,0,48,66.587Z" transform="translate(0 -37.27)" fill="#59ce8f"/>
      </g>
    </g>
    <g id="Group_9" data-name="Group 9" transform="translate(11.344 54.478)">
      <g id="Group_8" data-name="Group 8">
        <path id="Path_7" data-name="Path 7" d="M133.656,225.9,121,220.82v3.672c0,4.009,5.441,7.031,12.656,7.031s12.656-3.023,12.656-7.031V220.82Z" transform="translate(-121 -220.82)" fill="#59ce8f"/>
      </g>
    </g>
  </g>
</svg>
